<?xml version="1.0" encoding="UTF-8" standalone="no"?>
<!-- Created with Inkscape (http://www.inkscape.org/) -->

<svg
   xmlns:dc="http://purl.org/dc/elements/1.1/"
   xmlns:cc="http://creativecommons.org/ns#"
   xmlns:rdf="http://www.w3.org/1999/02/22-rdf-syntax-ns#"
   xmlns:svg="http://www.w3.org/2000/svg"
   xmlns="http://www.w3.org/2000/svg"
   xmlns:sodipodi="http://sodipodi.sourceforge.net/DTD/sodipodi-0.dtd"
   xmlns:inkscape="http://www.inkscape.org/namespaces/inkscape"
   width="7mm"
   height="7mm"
   viewBox="0 0 7 7"
   version="1.1"
   id="svg912"
   inkscape:version="0.92.5 (2060ec1f9f, 2020-04-08)"
   sodipodi:docname="180_gr.svg">
  <defs
     id="defs906" />
  <sodipodi:namedview
     id="base"
     pagecolor="#ffffff"
     bordercolor="#666666"
     borderopacity="1.0"
     inkscape:pageopacity="0.0"
     inkscape:pageshadow="2"
     inkscape:zoom="7.9195959"
     inkscape:cx="-24.327844"
     inkscape:cy="13.612303"
     inkscape:document-units="mm"
     inkscape:current-layer="layer1"
     showgrid="false"
     inkscape:window-width="1366"
     inkscape:window-height="704"
     inkscape:window-x="0"
     inkscape:window-y="27"
     inkscape:window-maximized="1" />
  <metadata
     id="metadata909">
    <rdf:RDF>
      <cc:Work
         rdf:about="">
        <dc:format>image/svg+xml</dc:format>
        <dc:type
           rdf:resource="http://purl.org/dc/dcmitype/StillImage" />
        <dc:title />
      </cc:Work>
    </rdf:RDF>
  </metadata>
  <g
     inkscape:label="Layer 1"
     inkscape:groupmode="layer"
     id="layer1"
     transform="translate(0,-290)">
    <path
       style="opacity:1;fill:#150000;fill-opacity:1;fill-rule:nonzero;stroke:#000000;stroke-width:0.04867294;stroke-linecap:butt;stroke-miterlimit:4;stroke-dasharray:none;stroke-dashoffset:0;stroke-opacity:1;paint-order:stroke markers fill"
       d="m 4.275703,296.93327 c -0.4242391,-0.093 -0.8213425,-0.26203 -1.17894,-0.5017 -0.2576631,-0.17269 -0.6902264,-0.60641 -0.8667485,-0.86907 -0.538146,-0.80073 -0.702237,-1.7386 -0.466042,-2.66369 0.272086,-1.06565 1.0928456,-1.94498 2.1336073,-2.28585 l 0.2996142,-0.0981 0.00881,-0.22803 0.00881,-0.22803 0.5632243,0.59619 c 0.3097734,0.32791 0.5632244,0.60898 0.5632244,0.6246 0,0.0156 -0.256876,0.29663 -0.5708356,0.62446 l -0.5708354,0.59607 v -0.2138 c 0,-0.2074 -0.00205,-0.2132 -0.0685,-0.19366 -0.1531866,0.0451 -0.4051736,0.22399 -0.5887059,0.41802 -0.340746,0.36024 -0.4898252,0.76309 -0.4590258,1.24039 0.029062,0.45038 0.171765,0.76684 0.4888823,1.08415 0.2287878,0.22893 0.4571411,0.3653 0.7583307,0.45286 l 0.1734647,0.0504 v 0.81984 c 0,0.45091 -0.010274,0.81875 -0.022833,0.81742 -0.012559,-10e-4 -0.1050337,-0.0204 -0.2055012,-0.0425 z"
       id="path864"
       inkscape:connector-curvature="0" />
  </g>
</svg>
