<?xml version="1.0" encoding="UTF-8" standalone="no"?>
<!-- Created with Inkscape (http://www.inkscape.org/) -->

<svg
   xmlns:dc="http://purl.org/dc/elements/1.1/"
   xmlns:cc="http://creativecommons.org/ns#"
   xmlns:rdf="http://www.w3.org/1999/02/22-rdf-syntax-ns#"
   xmlns:svg="http://www.w3.org/2000/svg"
   xmlns="http://www.w3.org/2000/svg"
   xmlns:sodipodi="http://sodipodi.sourceforge.net/DTD/sodipodi-0.dtd"
   xmlns:inkscape="http://www.inkscape.org/namespaces/inkscape"
   width="7mm"
   height="7mm"
   viewBox="0 0 7 7"
   version="1.1"
   id="svg912"
   inkscape:version="0.92.5 (2060ec1f9f, 2020-04-08)"
   sodipodi:docname="90_gr.svg">
  <defs
     id="defs906" />
  <sodipodi:namedview
     id="base"
     pagecolor="#ffffff"
     bordercolor="#666666"
     borderopacity="1.0"
     inkscape:pageopacity="0.0"
     inkscape:pageshadow="2"
     inkscape:zoom="7.919596"
     inkscape:cx="-18.004384"
     inkscape:cy="11.650723"
     inkscape:document-units="mm"
     inkscape:current-layer="layer1"
     showgrid="false"
     inkscape:window-width="1366"
     inkscape:window-height="704"
     inkscape:window-x="0"
     inkscape:window-y="27"
     inkscape:window-maximized="1" />
  <metadata
     id="metadata909">
    <rdf:RDF>
      <cc:Work
         rdf:about="">
        <dc:format>image/svg+xml</dc:format>
        <dc:type
           rdf:resource="http://purl.org/dc/dcmitype/StillImage" />
        <dc:title />
      </cc:Work>
    </rdf:RDF>
  </metadata>
  <g
     inkscape:label="Layer 1"
     inkscape:groupmode="layer"
     id="layer1"
     transform="translate(0,-290)">
    <path
       style="opacity:1;fill:#000000;fill-opacity:1;fill-rule:nonzero;stroke:#000000;stroke-width:0.07811075;stroke-linecap:butt;stroke-miterlimit:4;stroke-dasharray:none;stroke-dashoffset:0;stroke-opacity:1;paint-order:stroke markers fill"
       d="m 0.58288928,295.98879 c 0.0826757,-0.7917 0.47664072,-1.82926 0.94045582,-2.4768 0.2741539,-0.38276 0.849213,-0.95825 1.2266523,-1.22759 0.4055579,-0.2894 0.9633504,-0.56816 1.460406,-0.72985 l 0.4145037,-0.13484 0.014151,-0.366 0.014151,-0.36599 0.9038672,0.95804 c 0.4971271,0.52692 0.9038674,0.97711 0.9038674,1.00043 0,0.0233 -0.4067403,0.47126 -0.9038674,0.99544 L 4.65321,294.59469 4.638855,294.25962 c -0.00789,-0.18429 -0.025769,-0.33507 -0.039718,-0.33507 -0.01395,0 -0.1503996,0.0599 -0.3032207,0.13314 -0.1729501,0.0829 -0.4181094,0.27194 -0.6493328,0.50079 -0.437139,0.43264 -0.689804,0.90143 -0.7849767,1.45644 l -0.06045,0.35252 H 1.6722511 0.54334637 Z"
       id="path862"
       inkscape:connector-curvature="0" />
  </g>
</svg>
