<?xml version="1.0" encoding="UTF-8" standalone="no"?>
<!-- Created with Inkscape (http://www.inkscape.org/) -->

<svg
   xmlns:dc="http://purl.org/dc/elements/1.1/"
   xmlns:cc="http://creativecommons.org/ns#"
   xmlns:rdf="http://www.w3.org/1999/02/22-rdf-syntax-ns#"
   xmlns:svg="http://www.w3.org/2000/svg"
   xmlns="http://www.w3.org/2000/svg"
   xmlns:sodipodi="http://sodipodi.sourceforge.net/DTD/sodipodi-0.dtd"
   xmlns:inkscape="http://www.inkscape.org/namespaces/inkscape"
   width="8.6110001mm"
   height="5.6859999mm"
   viewBox="0 0 8.6110001 5.6859999"
   version="1.1"
   id="svg6765"
   sodipodi:docname="direct_selection (копия).svg"
   inkscape:version="0.92.5 (2060ec1f9f, 2020-04-08)">
  <defs
     id="defs6759" />
  <sodipodi:namedview
     id="base"
     pagecolor="#ffffff"
     bordercolor="#666666"
     borderopacity="1.0"
     inkscape:pageopacity="0.0"
     inkscape:pageshadow="2"
     inkscape:zoom="7.9195959"
     inkscape:cx="-2.8491869"
     inkscape:cy="2.0577394"
     inkscape:document-units="mm"
     inkscape:current-layer="layer1"
     showgrid="false"
     inkscape:window-width="1366"
     inkscape:window-height="704"
     inkscape:window-x="0"
     inkscape:window-y="27"
     inkscape:window-maximized="1" />
  <metadata
     id="metadata6762">
    <rdf:RDF>
      <cc:Work
         rdf:about="">
        <dc:format>image/svg+xml</dc:format>
        <dc:type
           rdf:resource="http://purl.org/dc/dcmitype/StillImage" />
        <dc:title />
      </cc:Work>
    </rdf:RDF>
  </metadata>
  <g
     inkscape:label="Layer 1"
     inkscape:groupmode="layer"
     id="layer1"
     transform="translate(0,-291.314)">
    <path
       style="fill:none;stroke:#000000;stroke-width:0.26499999;stroke-linecap:butt;stroke-linejoin:miter;stroke-opacity:1;stroke-miterlimit:4;stroke-dasharray:0.26499999,0.26499999;stroke-dashoffset:0"
       d="m 2.9399648,296.03115 c -0.4207475,-0.5291 0.013364,0.0468 -0.2672694,-0.23386 -0.050422,-0.0504 -0.079495,-0.12064 -0.1336349,-0.16705 -0.026738,-0.0229 -0.068728,-0.0177 -0.1002261,-0.0334 -0.017843,-0.009 -0.082638,-0.0826 -0.1002261,-0.10022 -0.075586,-0.0756 -0.1338332,-0.1406 -0.2004521,-0.23386 -0.014474,-0.0203 -0.019596,-0.0461 -0.033409,-0.0668 -0.055401,-0.0831 -0.00768,-0.004 -0.066817,-0.0334 -0.014086,-0.007 -0.022272,-0.0223 -0.033409,-0.0334 -0.033409,-0.0334 -0.066817,-0.0668 -0.100226,-0.10022 -0.022273,-0.0223 -0.049346,-0.0406 -0.066817,-0.0668 -0.013813,-0.0207 -0.015801,-0.0492 -0.033409,-0.0668 -0.028392,-0.0284 -0.068532,-0.0422 -0.1002261,-0.0668 -0.068655,-0.0534 -0.1349954,-0.10976 -0.2004521,-0.16704 -0.023705,-0.0207 -0.049345,-0.0406 -0.066817,-0.0668 -0.2214398,-0.44288 0.084804,0.11436 -0.1670435,-0.20045 -0.021999,-0.0275 -0.012279,-0.072 -0.033409,-0.10022 -0.014941,-0.0199 -0.051877,-0.0135 -0.066817,-0.0334 -0.02113,-0.0282 -0.02033,-0.0675 -0.033409,-0.10023 -0.00925,-0.0231 -0.020597,-0.0455 -0.033409,-0.0668 -0.020658,-0.0344 -0.042726,-0.0681 -0.066817,-0.10022 -0.028293,-0.0377 -0.12435903,-0.0882 -0.033409,-0.13364 0.00996,-0.005 0.023448,0.005 0.033409,0 0.014086,-0.007 0.019322,-0.0264 0.033409,-0.0334 0.00996,-0.005 0.023448,0.005 0.033409,0 0.014086,-0.007 0.022272,-0.0223 0.033409,-0.0334 0.011136,-0.0111 0.022272,-0.0223 0.033409,-0.0334 0.044545,-0.0446 0.08909,-0.0891 0.1336347,-0.13364 0.011136,-0.0111 0.026366,-0.0193 0.033409,-0.0334 0.023041,-0.0461 -0.04046,-0.0299 0.033409,-0.0668 0.019921,-0.01 0.051068,0.0157 0.066817,0 0.00787,-0.008 -0.011136,-0.0334 0,-0.0334 0.011136,0 -0.00787,0.0413 0,0.0334 0.017608,-0.0176 0.019596,-0.0461 0.033409,-0.0668 0.00874,-0.0131 0.022272,-0.0223 0.033409,-0.0334 0.033409,-0.0334 0.066817,-0.0668 0.1002261,-0.10023 0.011136,-0.0111 0.022272,-0.0223 0.033409,-0.0334 0.011136,-0.0111 0.019322,-0.0264 0.033409,-0.0334 0.00996,-0.005 0.027231,0.009 0.033409,0 0.1535559,-0.23034 -0.042997,-0.0238 0.066817,-0.13364 0.011136,-0.0111 0.019322,-0.0264 0.033409,-0.0334 0.00996,-0.005 0.023448,0.005 0.033409,0 0.028173,-0.0141 0.038645,-0.0527 0.066817,-0.0668 0.00996,-0.005 0.022844,0.004 0.033409,0 0.023624,-0.008 0.043194,-0.0255 0.066817,-0.0334 0.02113,-0.007 0.046896,0.01 0.066817,0 0.028173,-0.0141 0.038645,-0.0527 0.066817,-0.0668 0.019921,-0.01 0.046896,0.01 0.066817,0 0.014086,-0.007 0.019322,-0.0264 0.033409,-0.0334 0.026727,-0.0134 0.073499,0.0134 0.100226,0 0.014086,-0.007 0.019322,-0.0264 0.033409,-0.0334 0.00864,-0.004 0.176772,0 0.2004522,0 0.011136,0 0.025534,0.008 0.033409,0 0.00787,-0.008 -0.00787,-0.0255 0,-0.0334 0.00787,-0.008 0.025534,0.008 0.033409,0 0.015749,-0.0158 -0.00996,-0.0469 0,-0.0668 0.014086,-0.0282 0.052731,-0.0386 0.066817,-0.0668 0.00498,-0.01 -0.00498,-0.0234 0,-0.0334 0.00704,-0.0141 0.026366,-0.0193 0.033409,-0.0334 0.00498,-0.01 -0.00352,-0.0228 0,-0.0334 0.040372,-0.12111 0.015851,-0.0238 0.066817,-0.10022 0.013814,-0.0207 0.019595,-0.0461 0.033409,-0.0668 0.017473,-0.0262 0.044545,-0.0445 0.066817,-0.0668 0.055681,-0.0557 0.1113623,-0.11136 0.1670434,-0.16704 0.011136,-0.0111 0.022273,-0.0223 0.033409,-0.0334 0.011136,-0.0111 0.026366,-0.0193 0.033409,-0.0334 0.00498,-0.01 -0.00787,-0.0255 0,-0.0334 0.049158,0 0.025535,0.008 0.066818,-0.0334 0.01759,-0.0176 0.082383,-0.0913 0.100226,-0.10022 0.00996,-0.005 0.023447,0.005 0.033409,0 0.040091,-0.02 0.060136,-0.0802 0.100226,-0.10023 0.00996,-0.005 0.023447,0.005 0.033409,0 0.014086,-0.007 0.019322,-0.0264 0.033409,-0.0334 0.00996,-0.005 0.023447,0.005 0.033409,0 0.014086,-0.007 0.019323,-0.0264 0.033409,-0.0334 0.019921,-0.01 0.045688,0.007 0.066818,0 0.023625,-0.008 0.043194,-0.0255 0.066817,-0.0334 0.010565,-0.004 0.022844,0.004 0.033409,0 0.023622,-0.008 0.0424,-0.0285 0.066817,-0.0334 0.039063,-0.008 0.1489226,0 0.200452,0 0.011136,0 0.022273,0 0.033409,0 0.011136,0 0.023447,0.005 0.033409,0 0.014086,-0.007 0.019322,-0.0264 0.033409,-0.0334 0.00878,-0.004 0.1161648,0 0.133635,0 0.03518,0 0.1393576,-0.007 0.1670434,0 0.126338,0.0316 0.1987422,0.0885 0.3340869,0.13363 0.02113,0.007 0.044545,0 0.066817,0 0.066817,0 0.1356296,-0.0162 0.200452,0 0.1163598,0.0291 0.2284825,0.0768 0.334087,0.13364 0.0416,0.0224 0.060914,0.074 0.100226,0.10022 0.062158,0.0414 0.1336347,0.0668 0.2004523,0.10023 0.022273,0.0111 0.0424,0.0285 0.066817,0.0334 0.0546,0.0109 0.1130247,-0.0135 0.1670433,0 0.024159,0.006 0.043194,0.0255 0.066817,0.0334 0.010565,0.004 0.022273,0 0.033409,0 0.055681,0 0.1113623,0 0.1670436,0 0.022273,0 0.04521,-0.005 0.066817,0 0.024159,0.006 0.049209,0.0158 0.066817,0.0334 0.017608,0.0176 0.015801,0.0492 0.033409,0.0668 0.00491,0.005 0.1002261,-0.004 0.1002261,0 0,0.0551 -0.076602,0.0255 -0.1002261,0.0334 -0.2419929,0.0807 0.052672,-0.01 -0.100226,0.0668 -0.01992,0.01 -0.051068,-0.0157 -0.066817,0 -0.00787,0.008 0.00787,0.0255 0,0.0334 -0.00787,0.008 -0.023447,-0.005 -0.033409,0 -0.014086,0.007 -0.019323,0.0264 -0.033409,0.0334 -0.01992,0.01 -0.046896,-0.01 -0.066818,0 -0.028173,0.0141 -0.038645,0.0527 -0.066817,0.0668 -0.046082,0.0231 -0.029883,-0.0405 -0.066817,0.0334 -0.00498,0.01 0.00498,0.0234 0,0.0334 -0.00704,0.0141 -0.026366,0.0193 -0.033409,0.0334 -0.00498,0.01 0.00498,0.0234 0,0.0334 -0.00704,0.0141 -0.022273,0.0223 -0.033409,0.0334 -0.011136,0.0111 -0.019323,0.0264 -0.033409,0.0334 -0.019921,0.01 -0.046896,-0.01 -0.066817,0 -0.014086,0.007 -0.017661,0.0334 -0.033409,0.0334 -0.011136,0 -0.00787,-0.0255 0,-0.0334 0.00787,-0.008 0.022423,-0.002 0.033409,0 0.056011,0.009 0.1105413,0.0278 0.1670433,0.0334 0.069825,0.007 0.1979787,-0.022 0.2672697,0.0334 0.031354,0.0251 0.035971,0.0745 0.066817,0.10023 0.03826,0.0319 0.08909,0.0445 0.1336347,0.0668 0.08909,0.0445 0.1804559,0.0848 0.2672697,0.13363 0.091567,0.0515 0.1790649,0.10997 0.2672693,0.16705 0.101132,0.0654 0.1929384,0.14658 0.3006784,0.20045 0.072514,0.0362 0.1564782,0.0426 0.2338607,0.0668 0.1008385,0.0315 0.1994863,0.0699 0.3006783,0.10023 0.00501,0.002 0.097091,0.002 0.100226,0 0.014086,-0.007 0.017661,-0.0334 0.033409,-0.0334 0.015748,0 0.022273,0.0223 0.033409,0.0334 0.011136,0.0111 0.029761,0.0181 0.033409,0.0334 0.052609,0.22096 0.084362,0.44645 0.133635,0.66817 0.017587,0.0792 0.052314,0.1541 0.066817,0.23386 0.00797,0.0438 0,0.0891 0,0.13364 0,0.0668 0,0.13363 0,0.20045 0,0.0151 -0.00508,0.0901 0,0.10023 0.00704,0.0141 0.033409,0.0177 0.033409,0.0334 0,0.0111 -0.022273,0 -0.033409,0 -0.011136,0 -0.022273,0 -0.033409,0 -0.011136,0 -0.022273,0 -0.033409,0 -0.011136,0 -0.023447,-0.005 -0.033409,0 -0.014086,0.007 -0.019323,0.0264 -0.033409,0.0334 -0.020997,0.0105 -0.1126366,-0.0105 -0.1336347,0 -0.014086,0.007 -0.019323,0.0264 -0.033409,0.0334 -0.01992,0.01 -0.046896,-0.01 -0.066817,0 -0.028173,0.0141 -0.04061,0.0493 -0.066817,0.0668 -0.020719,0.0138 -0.044545,0.0223 -0.066817,0.0334 -0.033409,0.0334 -0.062429,0.0719 -0.1002263,0.10023 -0.00891,0.007 -0.024143,-0.006 -0.033409,0 -0.026207,0.0175 -0.040609,0.0493 -0.066817,0.0668 -0.00927,0.006 -0.023447,-0.005 -0.033409,0 -0.028173,0.0141 -0.038645,0.0527 -0.066817,0.0668 -0.00996,0.005 -0.023447,-0.005 -0.033409,0 -0.028173,0.0141 -0.038645,0.0527 -0.066817,0.0668 -0.00996,0.005 -0.023447,-0.005 -0.033409,0 -0.04009,0.02 -0.060136,0.0802 -0.1002261,0.10022 -0.00996,0.005 -0.023447,-0.005 -0.033409,0 -0.032875,0.0164 -0.1007597,0.1172 -0.133635,0.13364 -0.046082,0.023 -0.029883,-0.0405 -0.066817,0.0334 -0.00498,0.01 0.00352,0.0228 0,0.0334 -0.00814,0.0244 -0.036238,0.0849 -0.066817,0.10022 -0.00996,0.005 -0.023447,-0.005 -0.033409,0 -0.017844,0.009 -0.082638,0.0826 -0.100226,0.10023 -0.1108027,0.1108 0.031498,-0.0158 -0.066817,0.0334 -0.028173,0.0141 -0.04061,0.0493 -0.066818,0.0668 0.0038,0.0633 -0.077953,0.0223 -0.100226,0.0334 -0.0064,0.003 -0.1304372,0.12724 -0.1336347,0.13364 -0.00498,0.01 0.00352,0.0228 0,0.0334 -0.015748,0.0472 -0.051068,0.0864 -0.066817,0.13363 -0.00704,0.0211 0.015748,0.0511 0,0.0668 -0.00787,0.008 -0.028428,-0.01 -0.033409,0 -0.00996,0.0199 0.00704,0.0457 0,0.0668 -0.00754,0.0226 -0.087466,0.0747 -0.1002261,0.10022 -0.00498,0.01 0.00498,0.0235 0,0.0334 -0.00704,0.0141 -0.026366,0.0193 -0.033409,0.0334 -0.00498,0.01 0.00498,0.0234 0,0.0334 -0.014086,0.0282 -0.052731,0.0386 -0.066817,0.0668 -0.00498,0.01 0.00498,0.0234 0,0.0334 -0.045727,0.0915 -0.02109,-0.0246 -0.066817,0.0668 -0.00498,0.01 0.00787,0.0255 0,0.0334 -0.00787,0.008 -0.022273,0 -0.033409,0 -0.066817,0 -0.1336347,0 -0.200452,0 -0.1520859,0 -0.0019,-0.0158 -0.1002263,0.0334 -0.00864,0.004 -0.1767718,0 -0.200452,0 -0.100226,0 -0.2004521,0 -0.3006783,0 -0.022273,0 -0.044545,0 -0.066817,0 -0.011136,0 -0.022844,0.004 -0.033409,0 -0.023625,-0.008 -0.042659,-0.0274 -0.066817,-0.0334 -0.021609,-0.005 -0.044545,0 -0.066817,0 -0.1034439,0 -0.2418975,0.0127 -0.334087,-0.0334 -0.01992,-0.01 0.00704,-0.0457 0,-0.0668 -0.00498,-0.0149 -0.022273,-0.0223 -0.033409,-0.0334 -0.011136,-0.0111 -0.022273,-0.0223 -0.033409,-0.0334 -0.011136,-0.0111 -0.019323,-0.0264 -0.033409,-0.0334 -0.00996,-0.005 -0.025535,0.008 -0.033409,0 -0.00787,-0.008 0.00352,-0.0229 0,-0.0334 -0.00787,-0.0236 -0.019595,-0.0461 -0.033409,-0.0668 -0.036067,-0.0541 -0.066817,-0.0235 -0.066817,-0.10022 0,-0.0111 -0.00498,-0.0235 0,-0.0334 0.00704,-0.0141 0.026366,-0.0193 0.033409,-0.0334 0.010499,-0.021 -0.010499,-0.11264 0,-0.13364 0.1108028,-0.1108 -0.015748,0.0315 0.033409,-0.0668 0.014086,-0.0282 0.052731,-0.0387 0.066817,-0.0668 0.00498,-0.01 0,-0.0223 0,-0.0334 0,-0.0111 0,-0.0223 0,-0.0334 0,-0.0223 -0.00704,-0.0457 0,-0.0668 0.011827,-0.0355 0.092051,-0.0498 0.066817,-0.10022 -0.00704,-0.0141 -0.019322,-0.0264 -0.033409,-0.0334 -0.00175,-8.7e-4 -0.098478,-8.7e-4 -0.100226,0 -0.014086,0.007 -0.019322,0.0264 -0.033409,0.0334 -0.021077,0.0105 -0.1459669,-0.0105 -0.1670433,0 -0.014086,0.007 -0.019323,0.0264 -0.033409,0.0334 -0.00996,0.005 -0.023447,-0.005 -0.033409,0 -0.014087,0.007 -0.019323,0.0264 -0.033409,0.0334 -0.035278,0.0176 -0.031539,-0.0176 -0.066817,0 -0.014086,0.007 -0.019323,0.0264 -0.033409,0.0334 -0.00996,0.005 -0.022273,0 -0.033409,0 -0.066817,0 -0.1336347,0 -0.200452,0 -0.077954,0 -0.1559074,0 -0.233861,0 -0.1336347,0 -0.2672694,0 -0.4009043,0 -0.011136,0 -0.022273,0 -0.033409,0 -0.011136,0 -0.025535,0.008 -0.033409,0 -0.028392,-0.0284 -0.044545,-0.0668 -0.066817,-0.10022 z"
       id="path827"
       inkscape:connector-curvature="0" />
  </g>
</svg>
