<?xml version="1.0" encoding="UTF-8" standalone="no"?>
<!-- Created with Inkscape (http://www.inkscape.org/) -->

<svg
   xmlns:dc="http://purl.org/dc/elements/1.1/"
   xmlns:cc="http://creativecommons.org/ns#"
   xmlns:rdf="http://www.w3.org/1999/02/22-rdf-syntax-ns#"
   xmlns:svg="http://www.w3.org/2000/svg"
   xmlns="http://www.w3.org/2000/svg"
   xmlns:sodipodi="http://sodipodi.sourceforge.net/DTD/sodipodi-0.dtd"
   xmlns:inkscape="http://www.inkscape.org/namespaces/inkscape"
   width="7mm"
   height="7mm"
   viewBox="0 0 6.5179999 6.3489998"
   version="1.1"
   id="svg2979"
   inkscape:version="0.92.5 (2060ec1f9f, 2020-04-08)"
   sodipodi:docname="fill.svg">
  <defs
     id="defs2973" />
  <sodipodi:namedview
     id="base"
     pagecolor="#ffffff"
     bordercolor="#666666"
     borderopacity="1.0"
     inkscape:pageopacity="0.0"
     inkscape:pageshadow="2"
     inkscape:zoom="11.2"
     inkscape:cx="7.3297023"
     inkscape:cy="20.529559"
     inkscape:document-units="mm"
     inkscape:current-layer="layer1"
     showgrid="false"
     inkscape:window-width="1366"
     inkscape:window-height="704"
     inkscape:window-x="0"
     inkscape:window-y="27"
     inkscape:window-maximized="1" />
  <metadata
     id="metadata2976">
    <rdf:RDF>
      <cc:Work
         rdf:about="">
        <dc:format>image/svg+xml</dc:format>
        <dc:type
           rdf:resource="http://purl.org/dc/dcmitype/StillImage" />
        <dc:title></dc:title>
      </cc:Work>
    </rdf:RDF>
  </metadata>
  <g
     inkscape:label="Layer 1"
     inkscape:groupmode="layer"
     id="layer1"
     transform="translate(0,-290.651)">
    <rect
       style="opacity:1;fill:#bf0060;fill-opacity:0;stroke:#000000;stroke-width:0.10583334;stroke-miterlimit:4;stroke-dasharray:none;stroke-opacity:1"
       id="rect9133-5-8-4-74"
       width="6.4122863"
       height="6.2431488"
       x="0.052916668"
       y="290.70395" />
    <path
       style="fill:none;stroke:none;stroke-width:0.05734397px;stroke-linecap:butt;stroke-linejoin:miter;stroke-opacity:1"
       d="m 2.1266549,293.32035 c 0,0 -0.350621,0.12975 -0.543276,0.21736 -0.192659,0.0876 -0.299477,0.20447 -0.424093,0.41597 -0.124608,0.21145 -0.1132,0.22007 -0.154284,0.36891 -0.04109,0.1488 -0.18757897,0.64969 -0.09398,0.81083 0.09362,0.16108 0.581002,0.39645 0.688719,0.1361 0.107717,-0.26024 -0.108649,-0.5429 0.04464,-1.17244 l 0.102405,-0.26975"
       id="path11355"
       inkscape:connector-curvature="0"
       sodipodi:nodetypes="cssssscc" />
    <path
       style="opacity:1;fill:#625cff;fill-opacity:1;stroke:none;stroke-width:0.07557626;stroke-miterlimit:4;stroke-dasharray:none;stroke-opacity:1"
       d="m 1.1850429,295.86234 c 0.06649,-0.0667 0.07976,-0.1905 0.0505,-0.47134 -0.06977,-0.66929 9.34e-4,-0.97951 0.316323,-1.38809 0.102891,-0.13314 0.181166,-0.2482 0.173927,-0.2554 -0.02053,-0.019 -0.480992,0.17166 -0.59937,0.25013 -0.121772,0.0806 -0.27667597,0.28031 -0.38412697,0.49507 -0.150918,0.30171 -0.28245,0.98315 -0.219214,1.1358 0.08043,0.19431 0.53946597,0.3563 0.66194497,0.23406 z"
       id="path11357"
       inkscape:connector-curvature="0" />
    <rect
       style="opacity:1;fill:#808080;fill-opacity:1;stroke:#000000;stroke-width:0.21166667;stroke-miterlimit:4;stroke-dasharray:none;stroke-opacity:1"
       id="rect11351"
       width="3.0155592"
       height="3.6444724"
       x="230.4173"
       y="179.07977"
       transform="matrix(-0.60500339,0.7962229,0.7962229,0.60500339,0,0)"
       ry="0.33103269"
       rx="0.33103269" />
    <path
       style="fill:none;fill-rule:evenodd;stroke:#000000;stroke-width:0.06876469;stroke-opacity:1"
       id="path11369"
       sodipodi:type="arc"
       sodipodi:cx="38.498516"
       sodipodi:cy="-310.72549"
       sodipodi:rx="0.45747578"
       sodipodi:ry="2.1277311"
       sodipodi:start="0.34486371"
       sodipodi:end="3.2481292"
       sodipodi:open="true"
       d="m 38.929056,-310.00618 a 0.45747578,2.1277311 0 0 1 -0.532918,1.35445 0.45747578,2.1277311 0 0 1 -0.352504,-2.30002"
       transform="matrix(0.91430956,-0.40501609,0.10115288,-0.99487089,0,0)"
       inkscape:transform-center-x="-0.35976937"
       inkscape:transform-center-y="-0.54657878" />
  </g>
</svg>
