<?xml version="1.0" encoding="UTF-8" standalone="no"?>
<!-- Created with Inkscape (http://www.inkscape.org/) -->

<svg
   xmlns:dc="http://purl.org/dc/elements/1.1/"
   xmlns:cc="http://creativecommons.org/ns#"
   xmlns:rdf="http://www.w3.org/1999/02/22-rdf-syntax-ns#"
   xmlns:svg="http://www.w3.org/2000/svg"
   xmlns="http://www.w3.org/2000/svg"
   xmlns:sodipodi="http://sodipodi.sourceforge.net/DTD/sodipodi-0.dtd"
   xmlns:inkscape="http://www.inkscape.org/namespaces/inkscape"
   width="1280"
   height="720"
   viewBox="0 0 160 90"
   version="1.1"
   id="svg8"
   inkscape:version="0.92.5 (2060ec1f9f, 2020-04-08)"
   sodipodi:docname="PFL_main.svg">
  <defs
     id="defs2">
    <inkscape:path-effect
       effect="spiro"
       id="path-effect12272"
       is_visible="true" />
    <inkscape:path-effect
       effect="spiro"
       id="path-effect12268"
       is_visible="true" />
    <inkscape:path-effect
       effect="spiro"
       id="path-effect12230"
       is_visible="true" />
    <inkscape:path-effect
       effect="spiro"
       id="path-effect12226"
       is_visible="true" />
    <marker
       inkscape:isstock="true"
       style="overflow:visible"
       id="marker11776"
       refX="0"
       refY="0"
       orient="auto"
       inkscape:stockid="Arrow1Lstart">
      <path
         transform="matrix(0.8,0,0,0.8,10,0)"
         style="fill:#ffffff;fill-opacity:1;fill-rule:evenodd;stroke:#000000;stroke-width:1.00000003pt;stroke-opacity:1"
         d="M 0,0 5,-5 -12.5,0 5,5 Z"
         id="path11774"
         inkscape:connector-curvature="0" />
    </marker>
    <marker
       inkscape:stockid="Arrow1Lstart"
       orient="auto"
       refY="0"
       refX="0"
       id="marker11742"
       style="overflow:visible"
       inkscape:isstock="true">
      <path
         id="path11740"
         d="M 0,0 5,-5 -12.5,0 5,5 Z"
         style="fill:#ffffff;fill-opacity:1;fill-rule:evenodd;stroke:#000000;stroke-width:1.00000003pt;stroke-opacity:1"
         transform="matrix(0.8,0,0,0.8,10,0)"
         inkscape:connector-curvature="0" />
    </marker>
    <marker
       inkscape:stockid="Arrow1Lstart"
       orient="auto"
       refY="0"
       refX="0"
       id="marker11708"
       style="overflow:visible"
       inkscape:isstock="true">
      <path
         id="path11706"
         d="M 0,0 5,-5 -12.5,0 5,5 Z"
         style="fill:#ffffff;fill-opacity:1;fill-rule:evenodd;stroke:#000000;stroke-width:1.00000003pt;stroke-opacity:1"
         transform="matrix(0.8,0,0,0.8,10,0)"
         inkscape:connector-curvature="0" />
    </marker>
    <inkscape:path-effect
       effect="spiro"
       id="path-effect10953"
       is_visible="true" />
    <inkscape:path-effect
       effect="spiro"
       id="path-effect10949"
       is_visible="true" />
    <inkscape:path-effect
       effect="spiro"
       id="path-effect10915"
       is_visible="true" />
    <inkscape:path-effect
       effect="spiro"
       id="path-effect10911"
       is_visible="true" />
    <inkscape:path-effect
       effect="spiro"
       id="path-effect10901"
       is_visible="true" />
    <inkscape:path-effect
       effect="spiro"
       id="path-effect10893"
       is_visible="true" />
    <inkscape:path-effect
       effect="spiro"
       id="path-effect12230-7"
       is_visible="true" />
  </defs>
  <sodipodi:namedview
     id="base"
     pagecolor="#ffffff"
     bordercolor="#666666"
     borderopacity="1.0"
     inkscape:pageopacity="0.0"
     inkscape:pageshadow="2"
     inkscape:zoom="1.4142135"
     inkscape:cx="781.28924"
     inkscape:cy="749.07958"
     inkscape:document-units="mm"
     inkscape:current-layer="layer1"
     showgrid="false"
     inkscape:window-width="1366"
     inkscape:window-height="709"
     inkscape:window-x="0"
     inkscape:window-y="27"
     inkscape:window-maximized="1"
     inkscape:snap-bbox="false"
     inkscape:snap-global="true"
     showguides="false"
     units="mm"
     inkscape:snap-grids="true" />
  <metadata
     id="metadata5">
    <rdf:RDF>
      <cc:Work
         rdf:about="">
        <dc:format>image/svg+xml</dc:format>
        <dc:type
           rdf:resource="http://purl.org/dc/dcmitype/StillImage" />
        <dc:title />
      </cc:Work>
    </rdf:RDF>
  </metadata>
  <g
     inkscape:label="Layer 1"
     inkscape:groupmode="layer"
     id="layer1"
     transform="translate(0,-207)">
    <rect
       style="fill:#c2c2c2;fill-opacity:1;stroke:none;stroke-width:0.17486797"
       id="rect7155"
       width="160"
       height="90"
       x="0"
       y="207" />
    <path
       style="fill:#eaeaeb;fill-opacity:1;stroke:none;stroke-width:0.1951813"
       d="M 0,256.00517 V 215.01034 H 79.999999 160 V 256.00517 297 H 79.999999 0 Z"
       id="path8226"
       inkscape:connector-curvature="0" />
    <rect
       style="fill:#ffffff;stroke:#000000;stroke-width:0.17900001;stroke-miterlimit:4;stroke-dasharray:none;stroke-opacity:1"
       id="rect9035"
       width="96.32251"
       height="71.971313"
       x="29.767605"
       y="219.62694" />
    <rect
       style="opacity:1;fill:#ffffff;fill-opacity:1;stroke:#000000;stroke-width:0.05396452;stroke-miterlimit:4;stroke-dasharray:none;stroke-opacity:1"
       id="rect10830"
       width="0.6527198"
       height="0.6527198"
       x="125.77938"
       y="219.28496"
       ry="0.023623507"
       rx="0.023623513" />
    <rect
       style="opacity:1;fill:#fafafa;fill-opacity:1;stroke:#000000;stroke-width:0.117;stroke-miterlimit:4;stroke-dasharray:none;stroke-opacity:1"
       id="rect10830-0"
       width="1.4151561"
       height="1.415156"
       x="29.057934"
       y="291.0665"
       ry="0.023623511"
       rx="0.023623507"
       inkscape:transform-center-x="-0.029313825"
       inkscape:transform-center-y="-0.027892752" />
    <text
       xml:space="preserve"
       style="font-style:normal;font-weight:normal;font-size:10.58333302px;line-height:1.25;font-family:sans-serif;letter-spacing:0px;word-spacing:0px;fill:#000000;fill-opacity:1;stroke:none;stroke-width:0.26458332"
       x="54.173435"
       y="205.61952"
       id="text12103"><tspan
         sodipodi:role="line"
         id="tspan12101"
         x="54.173435"
         y="214.98329"
         style="stroke-width:0.26458332" /></text>
    <rect
       style="opacity:1;fill:#85d0ff;fill-opacity:1;stroke:none;stroke-width:0.06605955;stroke-linecap:butt;stroke-miterlimit:4;stroke-dasharray:none;stroke-dashoffset:0;stroke-opacity:1;paint-order:stroke markers fill"
       id="rect1960"
       width="24.152"
       height="6.0380001"
       x="70.747002"
       y="208.34903" />
    <g
       aria-label="Здесь могла быть "
       style="font-style:normal;font-weight:normal;font-size:2.16408968px;line-height:1.25;font-family:sans-serif;letter-spacing:0px;word-spacing:0px;fill:#000000;fill-opacity:1;stroke:none;stroke-width:0.05410224"
       id="text1968"
       transform="translate(0.20036597)">
      <path
         d="m 72.965794,209.14091 q 0.259944,0 0.424787,0.11095 0.164843,0.1099 0.164843,0.29799 0,0.13103 -0.07502,0.2219 -0.07503,0.0898 -0.21345,0.12469 0.153219,0.0328 0.23881,0.13631 0.08665,0.10356 0.08665,0.25572 0,0.24304 -0.18809,0.36667 -0.187033,0.12257 -0.438524,0.12257 -0.128916,0 -0.278965,-0.0349 -0.150049,-0.0349 -0.196543,-0.0644 v -0.21979 q 0.161672,0.094 0.250434,0.11729 0.08982,0.0222 0.220847,0.0222 0.198657,0 0.308552,-0.0761 0.109895,-0.0761 0.109895,-0.23353 0,-0.13948 -0.09827,-0.21768 -0.09721,-0.0793 -0.303268,-0.0793 H 72.76291 v -0.17541 h 0.224017 q 0.189147,0 0.272625,-0.0623 0.08348,-0.0634 0.08348,-0.18175 0,-0.12152 -0.08665,-0.18598 -0.08559,-0.0655 -0.294815,-0.0655 -0.141596,0 -0.190203,0.0127 -0.04861,0.0127 -0.265228,0.094 v -0.20817 q 0.119405,-0.0423 0.244094,-0.0602 0.124689,-0.018 0.215564,-0.018 z"
         style="stroke-width:0.05410224"
         id="path2836"
         inkscape:connector-curvature="0" />
      <path
         d="m 74.203171,210.59174 h 0.56427 v -0.87282 h -0.408937 v 0.14793 q 0,0.43536 -0.124689,0.66783 z m -0.282135,0 q 0.09616,-0.0423 0.138426,-0.13209 0.103555,-0.22296 0.103555,-0.67205 v -0.22402 h 0.79991 v 1.02816 h 0.155333 v 0.45437 h -0.155333 v -0.29904 h -0.959469 v 0.29904 h -0.155333 v -0.45437 z"
         style="stroke-width:0.05410224"
         id="path2838"
         inkscape:connector-curvature="0" />
      <path
         d="m 76.447569,210.10672 v 0.0951 h -0.893955 q 0.01268,0.20077 0.120462,0.30644 0.108838,0.10461 0.302212,0.10461 0.112008,0 0.21662,-0.0275 0.105668,-0.0275 0.209223,-0.0824 v 0.18386 q -0.104611,0.0444 -0.214506,0.0676 -0.109896,0.0232 -0.222961,0.0232 -0.283191,0 -0.449091,-0.16484 -0.164843,-0.16484 -0.164843,-0.44592 0,-0.29059 0.15639,-0.46071 0.157446,-0.17119 0.42373,-0.17119 0.238811,0 0.377237,0.15428 0.139482,0.15322 0.139482,0.41739 z m -0.19443,-0.0571 q -0.0021,-0.15956 -0.08982,-0.25466 -0.08665,-0.0951 -0.230357,-0.0951 -0.16273,0 -0.261001,0.0919 -0.09722,0.0919 -0.112009,0.25889 z"
         style="stroke-width:0.05410224"
         id="path2840"
         inkscape:connector-curvature="0" />
      <path
         d="m 77.618375,209.60902 v 0.18175 q -0.08242,-0.0454 -0.165899,-0.0676 -0.08242,-0.0232 -0.166956,-0.0232 -0.189147,0 -0.293759,0.12046 -0.104611,0.1194 -0.104611,0.33602 0,0.21662 0.104611,0.33709 0.104612,0.1194 0.293759,0.1194 0.08453,0 0.166956,-0.0222 0.08348,-0.0232 0.165899,-0.0687 v 0.17963 q -0.08136,0.038 -0.169069,0.0571 -0.08665,0.019 -0.18492,0.019 -0.267341,0 -0.424787,-0.16801 -0.157446,-0.16801 -0.157446,-0.45332 0,-0.28953 0.158502,-0.45543 0.15956,-0.1659 0.436411,-0.1659 0.08982,0 0.17541,0.019 0.08559,0.018 0.165899,0.0549 z"
         style="stroke-width:0.05410224"
         id="path2842"
         inkscape:connector-curvature="0" />
      <path
         d="m 78.693023,210.39625 q 0,-0.0951 -0.06974,-0.14476 -0.06869,-0.0497 -0.201827,-0.0497 h -0.276851 v 0.38992 h 0.276851 q 0.133142,0 0.201827,-0.0497 0.06974,-0.0507 0.06974,-0.14582 z m -0.743906,-0.83267 h 0.195487 v 0.48291 h 0.285305 q 0.22613,0 0.347649,0.0866 0.122575,0.0856 0.122575,0.26311 0,0.17752 -0.122575,0.26417 -0.121519,0.0867 -0.347649,0.0867 h -0.480792 z"
         style="stroke-width:0.05410224"
         id="path2844"
         inkscape:connector-curvature="0" />
      <path
         d="m 79.912437,209.56358 h 0.284248 l 0.336026,0.79252 0.337082,-0.79252 h 0.282135 v 1.18349 h -0.195487 v -0.99751 l -0.326515,0.77032 h -0.19443 l -0.327572,-0.77032 v 0.99751 h -0.195487 z"
         style="stroke-width:0.05410224"
         id="path2846"
         inkscape:connector-curvature="0" />
      <path
         d="m 82.011012,209.6999 q -0.156389,0 -0.247264,0.12257 -0.09088,0.12152 -0.09088,0.33391 0,0.2124 0.08982,0.33497 0.09087,0.12152 0.248321,0.12152 0.155332,0 0.246207,-0.12257 0.09087,-0.12258 0.09087,-0.33392 0,-0.21028 -0.09087,-0.33285 -0.09088,-0.12363 -0.246207,-0.12363 z m 0,-0.16485 q 0.253604,0 0.39837,0.16485 0.144766,0.16484 0.144766,0.45648 0,0.29059 -0.144766,0.45649 -0.144766,0.16484 -0.39837,0.16484 -0.254661,0 -0.399427,-0.16484 -0.143709,-0.1659 -0.143709,-0.45649 0,-0.29164 0.143709,-0.45648 0.144766,-0.16485 0.399427,-0.16485 z"
         style="stroke-width:0.05410224"
         id="path2848"
         inkscape:connector-curvature="0" />
      <path
         d="m 82.86904,210.74707 v -1.18349 h 0.834781 v 0.15534 h -0.639294 v 1.02815 z"
         style="stroke-width:0.05410224"
         id="path2850"
         inkscape:connector-curvature="0" />
      <path
         d="m 83.889797,210.74707 v -0.16167 q 0.192317,-0.0296 0.251491,-0.16273 0.07185,-0.18703 0.07185,-0.66571 v -0.19338 h 0.79991 v 1.18349 h -0.19443 v -1.02815 h -0.41105 v 0.11729 q 0,0.45649 -0.09299,0.66148 -0.09933,0.21874 -0.424787,0.24938 z"
         style="stroke-width:0.05410224"
         id="path2852"
         inkscape:connector-curvature="0" />
      <path
         d="m 85.934481,210.15216 q -0.23564,0 -0.326515,0.0539 -0.09088,0.0539 -0.09088,0.18386 0,0.10356 0.06763,0.16484 0.06868,0.0602 0.185976,0.0602 0.161673,0 0.258888,-0.11412 0.09827,-0.11518 0.09827,-0.30538 v -0.0433 z m 0.387804,-0.0803 v 0.67522 h -0.19443 v -0.17964 q -0.06657,0.10779 -0.1659,0.15956 -0.09933,0.0507 -0.243037,0.0507 -0.18175,0 -0.289532,-0.10144 -0.106725,-0.1025 -0.106725,-0.27368 0,-0.19971 0.133142,-0.30115 0.134199,-0.10145 0.399427,-0.10145 h 0.272625 v -0.019 q 0,-0.13419 -0.08876,-0.20711 -0.0877,-0.074 -0.247264,-0.074 -0.101442,0 -0.1976,0.0243 -0.09616,0.0243 -0.18492,0.0729 v -0.17964 q 0.106725,-0.0412 0.20711,-0.0613 0.100385,-0.0211 0.195487,-0.0211 0.256774,0 0.383576,0.13315 0.126803,0.13314 0.126803,0.40365 z"
         style="stroke-width:0.05410224"
         id="path2854"
         inkscape:connector-curvature="0" />
      <path
         d="m 87.879838,209.53505 q 0.253604,0 0.39837,0.16485 0.144766,0.16484 0.144766,0.45648 0,0.29059 -0.144766,0.45649 -0.144766,0.16484 -0.39837,0.16484 -0.254661,0 -0.3952,-0.16061 -0.140539,-0.16062 -0.147936,-0.46072 l -0.0063,-0.24198 q -0.0053,-0.12574 -0.0053,-0.16907 0,-0.16907 0.06129,-0.29375 0.09616,-0.19549 0.262058,-0.28003 0.166956,-0.0845 0.445921,-0.0866 0.128915,-0.001 0.185976,-0.019 l 0.05389,0.15427 q -0.05178,0.0211 -0.09933,0.0222 l -0.264171,0.018 q -0.133143,0.01 -0.213451,0.056 -0.21028,0.12363 -0.230357,0.2853 l -0.0074,0.0592 q 0.137369,-0.12575 0.36033,-0.12575 z m 0,0.16485 q -0.156389,0 -0.247264,0.12257 -0.09088,0.12152 -0.09088,0.33391 0,0.2124 0.08982,0.33497 0.09087,0.12152 0.248321,0.12152 0.155332,0 0.246207,-0.12257 0.09087,-0.12258 0.09087,-0.33392 0,-0.21028 -0.09087,-0.33285 -0.09088,-0.12363 -0.246207,-0.12363 z"
         style="stroke-width:0.05410224"
         id="path2856"
         inkscape:connector-curvature="0" />
      <path
         d="m 89.863235,209.56358 h 0.19443 v 1.18349 h -0.19443 z m 0.09721,-0.0285 z m -0.478678,0.8612 q 0,-0.0951 -0.06974,-0.14476 -0.06869,-0.0497 -0.201827,-0.0497 h -0.276851 v 0.38992 H 89.2102 q 0.133142,0 0.201827,-0.0497 0.06974,-0.0507 0.06974,-0.14582 z m -0.743906,-0.83267 h 0.195487 v 0.48291 h 0.285304 q 0.226131,0 0.34765,0.0866 0.122575,0.0856 0.122575,0.26311 0,0.17752 -0.122575,0.26417 -0.121519,0.0867 -0.34765,0.0867 h -0.480791 z"
         style="stroke-width:0.05410224"
         id="path2858"
         inkscape:connector-curvature="0" />
      <path
         d="m 90.313382,209.56358 h 1.133822 v 0.15534 h -0.471281 v 1.02815 h -0.19126 v -1.02815 h -0.471281 z"
         style="stroke-width:0.05410224"
         id="path2860"
         inkscape:connector-curvature="0" />
      <path
         d="m 92.451054,210.39625 q 0,-0.0951 -0.06974,-0.14476 -0.06869,-0.0497 -0.201827,-0.0497 h -0.276851 v 0.38992 h 0.276851 q 0.133142,0 0.201827,-0.0497 0.06974,-0.0507 0.06974,-0.14582 z m -0.743906,-0.83267 h 0.195487 v 0.48291 h 0.285305 q 0.22613,0 0.347649,0.0866 0.122575,0.0856 0.122575,0.26311 0,0.17752 -0.122575,0.26417 -0.121519,0.0867 -0.347649,0.0867 h -0.480792 z"
         style="stroke-width:0.05410224"
         id="path2862"
         inkscape:connector-curvature="0" />
    </g>
    <text
       xml:space="preserve"
       style="font-style:normal;font-weight:normal;font-size:2.16408968px;line-height:1.25;font-family:sans-serif;letter-spacing:0px;word-spacing:0px;fill:#000000;fill-opacity:1;stroke:none;stroke-width:0.05410224"
       x="94.10804"
       y="214.30583"
       id="text1968-3"><tspan
         sodipodi:role="line"
         id="tspan1966-6"
         x="94.10804"
         y="214.30583"
         style="stroke-width:0.05410224"> </tspan></text>
    <g
       aria-label="ваша реклама "
       style="font-style:normal;font-weight:normal;font-size:2.16408968px;line-height:1.25;font-family:sans-serif;letter-spacing:0px;word-spacing:0px;fill:#000000;fill-opacity:1;stroke:none;stroke-width:0.05410224"
       id="text1968-06"
       transform="translate(0.20036597)">
      <path
         d="m 75.220098,212.82667 v 0.38992 h 0.276851 q 0.133142,0 0.202883,-0.0497 0.06974,-0.0507 0.06974,-0.14582 0,-0.0951 -0.06974,-0.14477 -0.06974,-0.0497 -0.202883,-0.0497 z m 0,-0.48291 v 0.32758 h 0.255717 q 0.109895,0 0.179637,-0.0433 0.06974,-0.0444 0.06974,-0.12257 0,-0.0782 -0.06974,-0.11941 -0.06974,-0.0423 -0.179637,-0.0423 z m -0.19443,-0.15533 h 0.462828 q 0.208166,0 0.320175,0.0761 0.112008,0.0761 0.112008,0.21662 0,0.10884 -0.05706,0.1733 -0.05706,0.0634 -0.169069,0.0793 0.134199,0.0254 0.208167,0.10567 0.07397,0.0803 0.07397,0.20077 0,0.1585 -0.122576,0.24515 -0.121518,0.0866 -0.347649,0.0866 h -0.480791 z"
         style="stroke-width:0.05410224"
         id="path2813"
         inkscape:connector-curvature="0" />
      <path
         d="m 76.846335,212.777 q -0.235641,0 -0.326516,0.0539 -0.09087,0.0539 -0.09087,0.18386 0,0.10355 0.06763,0.16484 0.06869,0.0602 0.185977,0.0602 0.161673,0 0.258888,-0.11412 0.09827,-0.11518 0.09827,-0.30538 v -0.0433 z m 0.387803,-0.0803 v 0.67522 h -0.19443 v -0.17964 q -0.06657,0.10778 -0.165899,0.15956 -0.09933,0.0507 -0.243038,0.0507 -0.181749,0 -0.289531,-0.10144 -0.106725,-0.1025 -0.106725,-0.27368 0,-0.19971 0.133142,-0.30116 0.134199,-0.10144 0.399427,-0.10144 h 0.272624 v -0.019 q 0,-0.1342 -0.08876,-0.20711 -0.0877,-0.074 -0.247264,-0.074 -0.101442,0 -0.1976,0.0243 -0.09616,0.0243 -0.18492,0.0729 v -0.17964 q 0.106725,-0.0412 0.20711,-0.0613 0.100385,-0.0211 0.195487,-0.0211 0.256774,0 0.383576,0.13314 0.126802,0.13315 0.126802,0.40366 z"
         style="stroke-width:0.05410224"
         id="path2815"
         inkscape:connector-curvature="0" />
      <path
         d="m 78.51801,213.21659 h 0.500868 v -1.02816 h 0.195487 v 1.18349 h -1.58714 v -1.18349 h 0.195486 v 1.02816 h 0.499812 v -1.02816 h 0.195487 z"
         style="stroke-width:0.05410224"
         id="path2817"
         inkscape:connector-curvature="0" />
      <path
         d="m 80.152701,212.777 q -0.235641,0 -0.326516,0.0539 -0.09087,0.0539 -0.09087,0.18386 0,0.10355 0.06763,0.16484 0.06869,0.0602 0.185977,0.0602 0.161672,0 0.258887,-0.11412 0.09827,-0.11518 0.09827,-0.30538 v -0.0433 z m 0.387803,-0.0803 v 0.67522 h -0.19443 v -0.17964 q -0.06657,0.10778 -0.1659,0.15956 -0.09933,0.0507 -0.243037,0.0507 -0.18175,0 -0.289531,-0.10144 -0.106726,-0.1025 -0.106726,-0.27368 0,-0.19971 0.133143,-0.30116 0.134199,-0.10144 0.399426,-0.10144 h 0.272625 v -0.019 q 0,-0.1342 -0.08876,-0.20711 -0.0877,-0.074 -0.247264,-0.074 -0.101441,0 -0.1976,0.0243 -0.09616,0.0243 -0.184919,0.0729 v -0.17964 q 0.106725,-0.0412 0.20711,-0.0613 0.100385,-0.0211 0.195486,-0.0211 0.256775,0 0.383577,0.13314 0.126802,0.13315 0.126802,0.40366 z"
         style="stroke-width:0.05410224"
         id="path2819"
         inkscape:connector-curvature="0" />
      <path
         d="m 81.816979,213.19439 v 0.62768 h -0.195487 v -1.63364 h 0.195487 v 0.17964 q 0.06129,-0.10567 0.154276,-0.15639 0.09404,-0.0518 0.224017,-0.0518 0.215563,0 0.349762,0.17118 0.135256,0.17119 0.135256,0.45015 0,0.27897 -0.135256,0.45015 -0.134199,0.17118 -0.349762,0.17118 -0.129973,0 -0.224017,-0.0507 -0.09299,-0.0518 -0.154276,-0.15745 z m 0.661484,-0.41316 q 0,-0.21451 -0.08876,-0.33602 -0.0877,-0.12258 -0.241981,-0.12258 -0.154276,0 -0.243038,0.12258 -0.0877,0.12151 -0.0877,0.33602 0,0.21451 0.0877,0.33708 0.08876,0.12152 0.243038,0.12152 0.154276,0 0.241981,-0.12152 0.08876,-0.12257 0.08876,-0.33708 z"
         style="stroke-width:0.05410224"
         id="path2821"
         inkscape:connector-curvature="0" />
      <path
         d="m 84.014882,212.73157 v 0.0951 h -0.893955 q 0.01268,0.20077 0.120462,0.30644 0.108839,0.10461 0.302212,0.10461 0.112008,0 0.21662,-0.0275 0.105669,-0.0275 0.209224,-0.0824 v 0.18387 q -0.104612,0.0444 -0.214507,0.0676 -0.109895,0.0232 -0.222961,0.0232 -0.283191,0 -0.449091,-0.16484 -0.164842,-0.16484 -0.164842,-0.44592 0,-0.29059 0.156389,-0.46072 0.157446,-0.17118 0.42373,-0.17118 0.238811,0 0.377237,0.15428 0.139482,0.15322 0.139482,0.41739 z m -0.19443,-0.0571 q -0.0021,-0.15956 -0.08982,-0.25466 -0.08665,-0.0951 -0.230357,-0.0951 -0.16273,0 -0.261001,0.0919 -0.09722,0.0919 -0.112009,0.25888 z"
         style="stroke-width:0.05410224"
         id="path2823"
         inkscape:connector-curvature="0" />
      <path
         d="m 84.326604,212.18843 h 0.193374 v 0.55582 l 0.548419,-0.55582 h 0.238811 l -0.452261,0.45755 0.510378,0.72594 h -0.217677 l -0.419503,-0.59703 -0.208167,0.21134 v 0.38569 h -0.193374 z"
         style="stroke-width:0.05410224"
         id="path2825"
         inkscape:connector-curvature="0" />
      <path
         d="m 85.517488,213.37192 v -0.16167 q 0.192316,-0.0296 0.25149,-0.16273 0.07185,-0.18704 0.07185,-0.66572 v -0.19337 h 0.79991 v 1.18349 h -0.19443 v -1.02816 h -0.41105 v 0.1173 q 0,0.45648 -0.09299,0.66148 -0.09933,0.21873 -0.424787,0.24938 z"
         style="stroke-width:0.05410224"
         id="path2827"
         inkscape:connector-curvature="0" />
      <path
         d="m 87.562172,212.777 q -0.235641,0 -0.326516,0.0539 -0.09088,0.0539 -0.09088,0.18386 0,0.10355 0.06763,0.16484 0.06869,0.0602 0.185977,0.0602 0.161672,0 0.258887,-0.11412 0.09827,-0.11518 0.09827,-0.30538 v -0.0433 z m 0.387803,-0.0803 v 0.67522 h -0.19443 v -0.17964 q -0.06657,0.10778 -0.165899,0.15956 -0.09933,0.0507 -0.243038,0.0507 -0.18175,0 -0.289531,-0.10144 -0.106726,-0.1025 -0.106726,-0.27368 0,-0.19971 0.133143,-0.30116 0.134199,-0.10144 0.399426,-0.10144 h 0.272625 v -0.019 q 0,-0.1342 -0.08876,-0.20711 -0.0877,-0.074 -0.247264,-0.074 -0.101441,0 -0.1976,0.0243 -0.09616,0.0243 -0.184919,0.0729 v -0.17964 q 0.106725,-0.0412 0.20711,-0.0613 0.100385,-0.0211 0.195486,-0.0211 0.256775,0 0.383577,0.13314 0.126802,0.13315 0.126802,0.40366 z"
         style="stroke-width:0.05410224"
         id="path2829"
         inkscape:connector-curvature="0" />
      <path
         d="m 88.343062,212.18843 h 0.284248 l 0.336026,0.79251 0.337082,-0.79251 h 0.282135 v 1.18349 h -0.195487 v -0.99751 l -0.326515,0.77032 h -0.19443 l -0.327572,-0.77032 v 0.99751 h -0.195487 z"
         style="stroke-width:0.05410224"
         id="path2831"
         inkscape:connector-curvature="0" />
      <path
         d="m 90.520888,212.777 q -0.235641,0 -0.326515,0.0539 -0.09087,0.0539 -0.09087,0.18386 0,0.10355 0.06763,0.16484 0.06868,0.0602 0.185976,0.0602 0.161673,0 0.258888,-0.11412 0.09827,-0.11518 0.09827,-0.30538 v -0.0433 z m 0.387803,-0.0803 v 0.67522 h -0.19443 v -0.17964 q -0.06657,0.10778 -0.165899,0.15956 -0.09933,0.0507 -0.243038,0.0507 -0.181749,0 -0.289531,-0.10144 -0.106725,-0.1025 -0.106725,-0.27368 0,-0.19971 0.133142,-0.30116 0.134199,-0.10144 0.399427,-0.10144 h 0.272624 v -0.019 q 0,-0.1342 -0.08876,-0.20711 -0.0877,-0.074 -0.247264,-0.074 -0.101442,0 -0.1976,0.0243 -0.09616,0.0243 -0.18492,0.0729 v -0.17964 q 0.106725,-0.0412 0.20711,-0.0613 0.100385,-0.0211 0.195487,-0.0211 0.256774,0 0.383576,0.13314 0.126802,0.13315 0.126802,0.40366 z"
         style="stroke-width:0.05410224"
         id="path2833"
         inkscape:connector-curvature="0" />
    </g>
    <rect
       style="opacity:1;fill:#ffffff;fill-opacity:1;stroke:#000000;stroke-width:0.05396452;stroke-miterlimit:4;stroke-dasharray:none;stroke-opacity:1"
       id="rect10830-6"
       width="0.65271986"
       height="0.65271986"
       x="125.77938"
       y="291.30927"
       ry="0.023623509"
       rx="0.023623513" />
    <rect
       style="opacity:1;fill:#ffffff;fill-opacity:1;stroke:#000000;stroke-width:0.05396452;stroke-miterlimit:4;stroke-dasharray:none;stroke-opacity:1"
       id="rect10830-1"
       width="0.65271986"
       height="0.65271986"
       x="29.419123"
       y="219.28496"
       ry="0.023623509"
       rx="0.023623513" />
  </g>
</svg>
