<?xml version="1.0" encoding="UTF-8" standalone="no"?>
<!-- Created with Inkscape (http://www.inkscape.org/) -->

<svg
   xmlns:dc="http://purl.org/dc/elements/1.1/"
   xmlns:cc="http://creativecommons.org/ns#"
   xmlns:rdf="http://www.w3.org/1999/02/22-rdf-syntax-ns#"
   xmlns:svg="http://www.w3.org/2000/svg"
   xmlns="http://www.w3.org/2000/svg"
   xmlns:sodipodi="http://sodipodi.sourceforge.net/DTD/sodipodi-0.dtd"
   xmlns:inkscape="http://www.inkscape.org/namespaces/inkscape"
   width="8.6110001mm"
   height="5.6859999mm"
   viewBox="0 0 8.6110001 5.6859999"
   version="1.1"
   id="svg6765"
   sodipodi:docname="rotation.svg"
   inkscape:version="0.92.5 (2060ec1f9f, 2020-04-08)">
  <defs
     id="defs6759" />
  <sodipodi:namedview
     id="base"
     pagecolor="#ffffff"
     bordercolor="#666666"
     borderopacity="1.0"
     inkscape:pageopacity="0.0"
     inkscape:pageshadow="2"
     inkscape:zoom="11.2"
     inkscape:cx="24.822106"
     inkscape:cy="-0.71010184"
     inkscape:document-units="mm"
     inkscape:current-layer="layer1"
     showgrid="false"
     inkscape:window-width="1366"
     inkscape:window-height="709"
     inkscape:window-x="0"
     inkscape:window-y="27"
     inkscape:window-maximized="1" />
  <metadata
     id="metadata6762">
    <rdf:RDF>
      <cc:Work
         rdf:about="">
        <dc:format>image/svg+xml</dc:format>
        <dc:type
           rdf:resource="http://purl.org/dc/dcmitype/StillImage" />
        <dc:title></dc:title>
      </cc:Work>
    </rdf:RDF>
  </metadata>
  <g
     inkscape:label="Layer 1"
     inkscape:groupmode="layer"
     id="layer1"
     transform="translate(0,-291.314)">
    <path
       id="path12276"
       style="opacity:1;fill:#000000;fill-opacity:1;stroke:none;stroke-width:0.00136887;stroke-linecap:butt;stroke-miterlimit:4;stroke-dasharray:none;stroke-dashoffset:0;stroke-opacity:1;paint-order:stroke markers fill"
       d="m 5.2500952,292.27989 c -0.164215,-0.15142 -0.3998008,-0.26435 -0.6357142,-0.30491 -0.3506779,-0.0603 -0.7268542,0.0369 -1.0041235,0.25936 l -0.047993,0.0384 -0.012129,-0.0121 c -0.010511,-0.01 -0.3343978,-0.36872 -0.3604282,-0.39793 l -0.010511,-0.0121 0.068693,-0.0429 c 0.088992,-0.0555 0.2822101,-0.15061 0.3779372,-0.18599 0.1986834,-0.0734 0.3931255,-0.11747 0.593414,-0.13423 0.086222,-0.007 0.2600433,-0.007 0.3454602,7e-5 0.3824029,0.0327 0.7705777,0.17386 1.0743766,0.39079 l 0.055978,0.0398 -0.022683,0.0202 c -0.012534,0.01 -0.1046391,0.0977 -0.2048331,0.19265 -0.1001709,0.095 -0.183845,0.17327 -0.1858868,0.17387 -0.00202,6.4e-4 -0.016375,-0.01 -0.031598,-0.0245 z m -0.2998931,0.14534 0.8486561,-0.78872 0.077852,0.93471 z"
       inkscape:connector-curvature="0" />
    <path
       id="path12276-7"
       style="opacity:1;fill:#000000;fill-opacity:1;stroke:none;stroke-width:0.00136887;stroke-linecap:butt;stroke-miterlimit:4;stroke-dasharray:none;stroke-dashoffset:0;stroke-opacity:1;paint-order:stroke markers fill"
       d="m 6.3850411,294.9385 c 0.1513576,-0.16416 0.2643513,-0.3998 0.3049066,-0.63572 0.060263,-0.3507 -0.036915,-0.72685 -0.2593438,-1.00413 l -0.03845,-0.0482 0.012535,-0.0121 c 0.010713,-0.01 0.3687247,-0.3344 0.3979328,-0.36042 l 0.012129,-0.01 0.042879,0.0688 c 0.055594,0.0889 0.1506501,0.2822 0.186008,0.37793 0.073424,0.19873 0.117415,0.39314 0.1342548,0.59341 0.00728,0.0863 0.00728,0.26005 -8.29e-5,0.34548 -0.032709,0.38238 -0.1738783,0.77057 -0.3907704,1.07436 l -0.039906,0.0558 -0.019811,-0.0227 c -0.010713,-0.0121 -0.097644,-0.10463 -0.1926388,-0.20482 -0.095015,-0.10023 -0.1732517,-0.18377 -0.1738783,-0.18578 -6.318e-4,-0.002 0.010713,-0.0162 0.024441,-0.0316 z m -0.1452929,-0.29991 0.7887255,0.84867 -0.9347078,0.0778 z"
       inkscape:connector-curvature="0" />
    <path
       id="path12276-7-3"
       style="opacity:1;fill:#000000;fill-opacity:1;stroke:none;stroke-width:0.00136887;stroke-linecap:butt;stroke-miterlimit:4;stroke-dasharray:none;stroke-dashoffset:0;stroke-opacity:1;paint-order:stroke markers fill"
       d="m 3.4533728,296.03438 c 0.164215,0.15143 0.3997928,0.26435 0.6357121,0.30491 0.3506698,0.0603 0.7268462,-0.0369 1.0041236,-0.25933 l 0.048034,-0.0384 0.012129,0.0121 c 0.010713,0.01 0.3343999,0.36872 0.360422,0.39793 l 0.010713,0.0121 -0.068654,0.0429 c -0.089012,0.0555 -0.2822021,0.1506 -0.3779373,0.186 -0.1986835,0.0732 -0.3931175,0.11747 -0.5934081,0.13421 -0.086262,0.007 -0.2600492,0.007 -0.3454702,-4e-5 -0.3823949,-0.0327 -0.7705754,-0.17386 -1.0743663,-0.39078 l -0.055958,-0.0398 0.022642,-0.0202 c 0.012534,-0.01 0.1046986,-0.0976 0.2048309,-0.19266 0.100171,-0.095 0.1838247,-0.17325 0.1858868,-0.17387 0.00222,-6.3e-4 0.016375,0.01 0.031618,0.0244 z m 0.299885,-0.14535 -0.8486521,0.78873 -0.077872,-0.9347 z"
       inkscape:connector-curvature="0" />
    <path
       id="path12276-7-3-6"
       style="opacity:1;fill:#000000;fill-opacity:1;stroke:none;stroke-width:0.00136887;stroke-linecap:butt;stroke-miterlimit:4;stroke-dasharray:none;stroke-dashoffset:0;stroke-opacity:1;paint-order:stroke markers fill"
       d="m 2.2258313,293.49543 c -0.1513576,0.16414 -0.2643491,0.39977 -0.3049047,0.63569 -0.060263,0.35068 0.036915,0.72686 0.2593438,1.00413 l 0.038451,0.0482 -0.012534,0.0121 c -0.010713,0.01 -0.3687246,0.33436 -0.3979329,0.36041 l -0.012129,0.01 -0.042879,-0.0688 c -0.055594,-0.0889 -0.1506501,-0.28219 -0.186008,-0.37794 -0.073424,-0.19872 -0.117415,-0.39312 -0.1342549,-0.59342 -0.00728,-0.0863 -0.00728,-0.26002 8.49e-5,-0.34545 0.032709,-0.3824 0.1738783,-0.77058 0.3907683,-1.07439 l 0.039886,-0.0558 0.019811,0.0227 c 0.010713,0.0121 0.097644,0.10463 0.1926389,0.20484 0.095015,0.10023 0.1732516,0.18376 0.1738784,0.18598 6.341e-4,0.002 -0.010713,0.0162 -0.024441,0.0316 z m 0.1452929,0.29986 -0.7887256,-0.84865 0.9347097,-0.0778 z"
       inkscape:connector-curvature="0" />
  </g>
</svg>
